<svg width="312" height="78" viewBox="0 0 312 78" fill="none" xmlns="http://www.w3.org/2000/svg">
<path d="M91.584 6.23975H97.2617L107.58 24.3276V6.23975H112.625V32.1499H107.211L96.6289 13.7456V32.1499H91.584V6.23975ZM136.848 10.8276H123.137V16.3296H135.723V20.8296H123.137V27.4917H137.48V32.1499H117.846V6.23975H136.848V10.8276ZM145.83 32.1499H139.537L147.869 18.9487L139.941 6.23975H146.41L151.033 14.6597L155.779 6.23975H162.037L154.109 18.7378L162.529 32.1499H155.955L151.033 23.3257L145.83 32.1499ZM184.537 6.23975V10.8276H176.785V32.1499H171.336V10.8276H163.549V6.23975H184.537ZM212.328 14.4839C212.328 13.1362 211.971 12.1753 211.256 11.6011C210.553 11.0269 209.562 10.7397 208.285 10.7397H203.24V18.3687H208.285C209.562 18.3687 210.553 18.0581 211.256 17.437C211.971 16.8159 212.328 15.8315 212.328 14.4839ZM217.689 14.4487C217.689 17.5073 216.916 19.6694 215.369 20.9351C213.822 22.2007 211.613 22.8335 208.742 22.8335H203.24V32.1499H197.861V6.23975H209.146C211.748 6.23975 213.822 6.90771 215.369 8.24365C216.916 9.57959 217.689 11.6479 217.689 14.4487ZM227.164 10.7397V17.7007H233.299C234.518 17.7007 235.432 17.5601 236.041 17.2788C237.119 16.7866 237.658 15.814 237.658 14.3608C237.658 12.7905 237.137 11.7358 236.094 11.1968C235.508 10.8921 234.629 10.7397 233.457 10.7397H227.164ZM234.582 6.23975C236.398 6.2749 237.793 6.49756 238.766 6.90771C239.75 7.31787 240.582 7.92139 241.262 8.71826C241.824 9.37451 242.27 10.1011 242.598 10.8979C242.926 11.6948 243.09 12.603 243.09 13.6226C243.09 14.853 242.779 16.0659 242.158 17.2612C241.537 18.4448 240.512 19.2827 239.082 19.7749C240.277 20.2554 241.121 20.9409 241.613 21.8315C242.117 22.7104 242.369 24.0581 242.369 25.8745V27.6147C242.369 28.7983 242.416 29.6011 242.51 30.0229C242.65 30.6909 242.979 31.1831 243.494 31.4995V32.1499H237.535C237.371 31.5757 237.254 31.1128 237.184 30.7612C237.043 30.0347 236.967 29.2905 236.955 28.5288L236.92 26.1206C236.896 24.4683 236.592 23.3667 236.006 22.8159C235.432 22.2651 234.348 21.9897 232.754 21.9897H227.164V32.1499H221.873V6.23975H234.582ZM259.227 28.2827C261.371 28.2827 263.07 27.4917 264.324 25.9097C265.59 24.3276 266.223 22.0776 266.223 19.1597C266.223 16.2534 265.59 14.0093 264.324 12.4272C263.07 10.8335 261.371 10.0366 259.227 10.0366C257.082 10.0366 255.371 10.8276 254.094 12.4097C252.816 13.9917 252.178 16.2417 252.178 19.1597C252.178 22.0776 252.816 24.3276 254.094 25.9097C255.371 27.4917 257.082 28.2827 259.227 28.2827ZM271.637 19.1597C271.637 23.812 270.33 27.3745 267.717 29.8472C265.76 31.8628 262.93 32.8706 259.227 32.8706C255.523 32.8706 252.693 31.8628 250.736 29.8472C248.111 27.3745 246.799 23.812 246.799 19.1597C246.799 14.4136 248.111 10.8511 250.736 8.47217C252.693 6.45654 255.523 5.44873 259.227 5.44873C262.93 5.44873 265.76 6.45654 267.717 8.47217C270.33 10.8511 271.637 14.4136 271.637 19.1597ZM275.785 6.2749H294.154V10.8276H281.164V16.7866H292.537V21.2866H281.164V32.1499H275.785V6.2749ZM302.75 32.1499H297.371V6.23975H302.75V32.1499Z" fill="white"/>
<path d="M91.6367 69.1499V43.2397H96.998V53.1187H107.123V43.2397H112.502V69.1499H107.123V57.5835H96.998V69.1499H91.6367ZM117.688 43.2397H123.189V59.1655C123.189 60.9468 123.4 62.2476 123.822 63.0679C124.479 64.521 125.908 65.2476 128.111 65.2476C130.303 65.2476 131.727 64.521 132.383 63.0679C132.805 62.2476 133.016 60.9468 133.016 59.1655V43.2397H138.518V59.1655C138.518 61.9194 138.09 64.064 137.234 65.5991C135.641 68.4116 132.6 69.8179 128.111 69.8179C123.623 69.8179 120.576 68.4116 118.971 65.5991C118.115 64.064 117.688 61.9194 117.688 59.1655V43.2397ZM148.959 47.7397V53.4526H155.322C156.459 53.4526 157.379 53.2417 158.082 52.8198C158.797 52.3862 159.154 51.6245 159.154 50.5347C159.154 49.3276 158.686 48.5308 157.748 48.144C156.939 47.8745 155.908 47.7397 154.654 47.7397H148.959ZM148.959 57.7417V64.6499H155.322C156.459 64.6499 157.344 64.4976 157.977 64.1929C159.125 63.6304 159.699 62.5522 159.699 60.9585C159.699 59.6108 159.143 58.6851 158.029 58.1812C157.408 57.8999 156.535 57.7534 155.41 57.7417H148.959ZM156.377 43.2397C159.553 43.2866 161.803 44.2065 163.127 45.9995C163.924 47.1011 164.322 48.4194 164.322 49.9546C164.322 51.5366 163.924 52.8081 163.127 53.769C162.682 54.3081 162.025 54.8003 161.158 55.2456C162.482 55.7261 163.479 56.4878 164.146 57.5308C164.826 58.5737 165.166 59.8394 165.166 61.3276C165.166 62.8628 164.779 64.2397 164.006 65.4585C163.514 66.2671 162.898 66.9468 162.16 67.4976C161.328 68.1304 160.344 68.564 159.207 68.7983C158.082 69.0327 156.857 69.1499 155.533 69.1499H143.791V43.2397H156.377ZM173.639 61.1519C173.803 62.3354 174.125 63.2202 174.605 63.8062C175.484 64.8726 176.99 65.4058 179.123 65.4058C180.4 65.4058 181.438 65.2651 182.234 64.9839C183.746 64.4448 184.502 63.4429 184.502 61.978C184.502 61.1226 184.127 60.4604 183.377 59.9917C182.627 59.5347 181.449 59.1304 179.844 58.7788L177.102 58.1636C174.406 57.5542 172.543 56.8921 171.512 56.1772C169.766 54.9819 168.893 53.1128 168.893 50.5698C168.893 48.2495 169.736 46.3218 171.424 44.7866C173.111 43.2515 175.59 42.4839 178.859 42.4839C181.59 42.4839 183.916 43.2104 185.838 44.6636C187.771 46.105 188.785 48.2026 188.879 50.9565H183.676C183.582 49.3979 182.902 48.2905 181.637 47.6343C180.793 47.2007 179.744 46.9839 178.49 46.9839C177.096 46.9839 175.982 47.2651 175.15 47.8276C174.318 48.3901 173.902 49.1753 173.902 50.1831C173.902 51.1089 174.312 51.8003 175.133 52.2573C175.66 52.562 176.785 52.9194 178.508 53.3296L182.973 54.4019C184.93 54.8706 186.406 55.4976 187.402 56.2827C188.949 57.5015 189.723 59.2651 189.723 61.5737C189.723 63.9409 188.814 65.9097 186.998 67.48C185.193 69.0386 182.639 69.8179 179.334 69.8179C175.959 69.8179 173.305 69.0503 171.371 67.5151C169.438 65.9683 168.471 63.8472 168.471 61.1519H173.639Z" fill="#10C781"/>
<path fill-rule="evenodd" clip-rule="evenodd" d="M28.4556 4.91721C25.267 1.76675 20.9651 2.39551e-06 16.4826 2.66408e-06V2.66408e-06C7.37949 2.66408e-06 -3.97907e-07 7.3795 0 16.4826L2.66408e-06 60.9471C2.66408e-06 70.0502 7.3795 77.4297 16.4826 77.4297H20.4564C27.4048 77.4297 30.8629 69.0094 25.9202 64.1259L19.1133 57.4005C17.1556 55.4663 17.1366 52.3112 19.0709 50.3535C21.0051 48.3958 24.1602 48.3768 26.1179 50.311L48.3141 72.2414C51.6785 75.5655 56.2175 77.4297 60.9471 77.4297V77.4297C70.0502 77.4297 77.4297 70.0502 77.4297 60.9471V16.4826C77.4297 7.37949 70.0502 -3.97907e-07 60.9471 0L56.5876 2.61199e-07C49.6392 6.77508e-07 46.1811 8.42026 51.1239 13.3038L58.1247 20.2208C60.0824 22.1551 60.1014 25.3101 58.1672 27.2678C56.2329 29.2255 53.0778 29.2445 51.1201 27.3103L28.4556 4.91721ZM19.0709 19.4966C21.0051 17.5389 24.1602 17.5199 26.1179 19.4542L58.1247 51.0777C60.0824 53.0119 60.1014 56.167 58.1672 58.1247C56.2329 60.0824 53.0778 60.1014 51.1201 58.1672L19.1133 26.5437C17.1556 24.6094 17.1366 21.4543 19.0709 19.4966Z" fill="#10C781"/>
</svg>
